# xmcd
#
# Track frame offsets:
#	150
#	33974
#	74540
#	114658
#	143115
#	187184
#	225051
#	276496
#
# Disc length: 4470 seconds
#
# Revision: 0
# Processed by: cddbd v1.5.2PL0 Copyright (c) Steve Scherf et al.
# Submitted via: EZCDAudioConverter 2.1.7.1
#
DISCID=72117408
DTITLE=Lindstrom and Prins Thomas - L&Ptii
DYEAR=1900
DGENRE=
TTITLE0=Cisco
TTITLE1=Rothaus
TTITLE2=For Ett Slikk Og Ingenting
TTITLE3=Rett På
TTITLE4=Skal Vi Prøve Nå?
TTITLE5=Gudene Vet and Snutt
TTITLE6=Note I Love You and 100
TTITLE7=Flue På Veggen
EXTD=
EXTT0=
EXTT1=
EXTT2=
EXTT3=
EXTT4=
EXTT5=
EXTT6=
EXTT7=
PLAYORDER=
